<mxfile host="65bd71144e">
    <diagram id="PNMXZvdPhVhFWmoELqoi" name="Page-1">
        <mxGraphModel dx="622" dy="647" grid="1" gridSize="10" guides="1" tooltips="1" connect="1" arrows="1" fold="1" page="1" pageScale="1" pageWidth="850" pageHeight="1100" math="0" shadow="0">
            <root>
                <mxCell id="0"/>
                <mxCell id="1" parent="0"/>
                <mxCell id="4" style="edgeStyle=none;html=1;" parent="1" source="2" target="3" edge="1">
                    <mxGeometry relative="1" as="geometry"/>
                </mxCell>
                <mxCell id="2" value="/start" style="shape=parallelogram;perimeter=parallelogramPerimeter;whiteSpace=wrap;html=1;fixedSize=1;" parent="1" vertex="1">
                    <mxGeometry x="270" y="30" width="120" height="60" as="geometry"/>
                </mxCell>
                <mxCell id="3" value="Message&lt;br&gt;/quiz - list of quizes&lt;div&gt;&lt;br/&gt;&lt;/div&gt;" style="rounded=1;whiteSpace=wrap;html=1;" parent="1" vertex="1">
                    <mxGeometry x="270" y="140" width="120" height="60" as="geometry"/>
                </mxCell>
                <mxCell id="9" style="edgeStyle=none;html=1;entryX=0.5;entryY=0;entryDx=0;entryDy=0;" parent="1" source="5" target="6" edge="1">
                    <mxGeometry relative="1" as="geometry"/>
                </mxCell>
                <mxCell id="5" value="/quiz" style="shape=parallelogram;perimeter=parallelogramPerimeter;whiteSpace=wrap;html=1;fixedSize=1;" parent="1" vertex="1">
                    <mxGeometry x="270" y="230" width="120" height="60" as="geometry"/>
                </mxCell>
                <mxCell id="6" value="Tanlash quizni" style="rounded=1;whiteSpace=wrap;html=1;" parent="1" vertex="1">
                    <mxGeometry x="270" y="330" width="120" height="60" as="geometry"/>
                </mxCell>
                <mxCell id="7" value="1-variant" style="shape=process;whiteSpace=wrap;html=1;backgroundOutline=1;" parent="1" vertex="1">
                    <mxGeometry x="280" y="400" width="100" height="20" as="geometry"/>
                </mxCell>
                <mxCell id="8" value="2-variant" style="shape=process;whiteSpace=wrap;html=1;backgroundOutline=1;" parent="1" vertex="1">
                    <mxGeometry x="280" y="420" width="100" height="20" as="geometry"/>
                </mxCell>
                <mxCell id="10" value="1 -Savol: afqewrfew&lt;br&gt;a: asdfasf&lt;br&gt;b:asdfdas&lt;div&gt;c:asdfas&lt;/div&gt;" style="rounded=0;whiteSpace=wrap;html=1;" parent="1" vertex="1">
                    <mxGeometry x="470" y="400" width="120" height="60" as="geometry"/>
                </mxCell>
                <mxCell id="11" style="edgeStyle=none;html=1;entryX=0;entryY=0.133;entryDx=0;entryDy=0;entryPerimeter=0;" parent="1" source="7" target="10" edge="1">
                    <mxGeometry relative="1" as="geometry"/>
                </mxCell>
                <mxCell id="28" style="edgeStyle=none;html=1;entryX=0.5;entryY=0;entryDx=0;entryDy=0;" parent="1" source="14" target="23" edge="1">
                    <mxGeometry relative="1" as="geometry"/>
                </mxCell>
                <mxCell id="14" value="a" style="shape=process;whiteSpace=wrap;html=1;backgroundOutline=1;" parent="1" vertex="1">
                    <mxGeometry x="470" y="460" width="50" height="20" as="geometry"/>
                </mxCell>
                <mxCell id="29" style="edgeStyle=none;html=1;entryX=0.5;entryY=0;entryDx=0;entryDy=0;" parent="1" source="20" target="23" edge="1">
                    <mxGeometry relative="1" as="geometry"/>
                </mxCell>
                <mxCell id="20" value="b" style="shape=process;whiteSpace=wrap;html=1;backgroundOutline=1;" parent="1" vertex="1">
                    <mxGeometry x="520" y="460" width="50" height="20" as="geometry"/>
                </mxCell>
                <mxCell id="30" style="edgeStyle=none;html=1;entryX=0.5;entryY=0;entryDx=0;entryDy=0;" parent="1" source="21" target="23" edge="1">
                    <mxGeometry relative="1" as="geometry"/>
                </mxCell>
                <mxCell id="21" value="c" style="shape=process;whiteSpace=wrap;html=1;backgroundOutline=1;size=0.5;" parent="1" vertex="1">
                    <mxGeometry x="570" y="460" width="50" height="20" as="geometry"/>
                </mxCell>
                <mxCell id="31" style="edgeStyle=none;html=1;" parent="1" source="22" edge="1">
                    <mxGeometry relative="1" as="geometry">
                        <mxPoint x="530" y="530" as="targetPoint"/>
                    </mxGeometry>
                </mxCell>
                <mxCell id="22" value="d" style="shape=process;whiteSpace=wrap;html=1;backgroundOutline=1;" parent="1" vertex="1">
                    <mxGeometry x="620" y="460" width="50" height="20" as="geometry"/>
                </mxCell>
                <mxCell id="23" value="2 -Savol: afqewrfew&lt;br&gt;a: asdfasf&lt;br&gt;b:asdfdas&lt;div&gt;c:asdfas&lt;/div&gt;" style="rounded=0;whiteSpace=wrap;html=1;" parent="1" vertex="1">
                    <mxGeometry x="470" y="530" width="120" height="60" as="geometry"/>
                </mxCell>
                <mxCell id="24" value="a" style="shape=process;whiteSpace=wrap;html=1;backgroundOutline=1;" parent="1" vertex="1">
                    <mxGeometry x="470" y="590" width="50" height="20" as="geometry"/>
                </mxCell>
                <mxCell id="25" value="b" style="shape=process;whiteSpace=wrap;html=1;backgroundOutline=1;" parent="1" vertex="1">
                    <mxGeometry x="520" y="590" width="50" height="20" as="geometry"/>
                </mxCell>
                <mxCell id="26" value="c" style="shape=process;whiteSpace=wrap;html=1;backgroundOutline=1;size=0.5;" parent="1" vertex="1">
                    <mxGeometry x="570" y="590" width="50" height="20" as="geometry"/>
                </mxCell>
                <mxCell id="27" value="d" style="shape=process;whiteSpace=wrap;html=1;backgroundOutline=1;" parent="1" vertex="1">
                    <mxGeometry x="620" y="590" width="50" height="20" as="geometry"/>
                </mxCell>
                <mxCell id="32" value="Result" style="shape=note;whiteSpace=wrap;html=1;backgroundOutline=1;darkOpacity=0.05;" parent="1" vertex="1">
                    <mxGeometry x="470" y="670" width="80" height="100" as="geometry"/>
                </mxCell>
                <mxCell id="33" style="edgeStyle=none;html=1;entryX=0;entryY=0;entryDx=25;entryDy=0;entryPerimeter=0;" parent="1" source="24" target="32" edge="1">
                    <mxGeometry relative="1" as="geometry"/>
                </mxCell>
                <mxCell id="40" style="edgeStyle=none;html=1;entryX=1;entryY=0;entryDx=0;entryDy=0;" parent="1" source="36" target="7" edge="1">
                    <mxGeometry relative="1" as="geometry"/>
                </mxCell>
                <mxCell id="41" style="edgeStyle=none;html=1;entryX=1;entryY=0;entryDx=0;entryDy=0;" parent="1" source="36" target="10" edge="1">
                    <mxGeometry relative="1" as="geometry"/>
                </mxCell>
                <mxCell id="36" value="database" style="shape=cylinder3;whiteSpace=wrap;html=1;boundedLbl=1;backgroundOutline=1;size=15;fillColor=#f8cecc;strokeColor=#b85450;" parent="1" vertex="1">
                    <mxGeometry x="710" y="160" width="60" height="80" as="geometry"/>
                </mxCell>
                <mxCell id="37" style="edgeStyle=none;html=1;entryX=0.145;entryY=1;entryDx=0;entryDy=-4.35;entryPerimeter=0;" parent="1" source="22" target="36" edge="1">
                    <mxGeometry relative="1" as="geometry"/>
                </mxCell>
                <mxCell id="39" style="edgeStyle=none;html=1;entryX=0;entryY=0;entryDx=0;entryDy=15;entryPerimeter=0;" parent="1" source="2" target="36" edge="1">
                    <mxGeometry relative="1" as="geometry"/>
                </mxCell>
                <mxCell id="44" value="" style="shape=cross;whiteSpace=wrap;html=1;" parent="1" vertex="1">
                    <mxGeometry x="700" y="160" width="80" height="80" as="geometry"/>
                </mxCell>
                <mxCell id="45" value="Text" style="text;html=1;align=center;verticalAlign=middle;resizable=0;points=[];autosize=1;strokeColor=none;fillColor=none;" vertex="1" parent="1">
                    <mxGeometry x="560" y="100" width="50" height="30" as="geometry"/>
                </mxCell>
            </root>
        </mxGraphModel>
    </diagram>
</mxfile>